<svg width="30" height="30" viewBox="0 0 30 30" fill="none" xmlns="http://www.w3.org/2000/svg">
<path fill-rule="evenodd" clip-rule="evenodd" d="M18.7444 6.04561C19.6226 4.86681 20.2882 3.2007 20.0474 1.5C18.6121 1.60372 16.9345 2.55863 15.9557 3.80328C15.0633 4.93104 14.3299 6.60869 14.6163 8.23695C16.1854 8.28799 17.8048 7.31002 18.7444 6.04561ZM26.5 22.0433C25.8721 23.4987 25.5699 24.1491 24.7609 25.4382C23.6325 27.2376 22.0414 29.4784 20.068 29.4948C18.3163 29.5146 17.8647 28.3012 15.4866 28.316C13.1086 28.3292 12.6129 29.5179 10.8581 29.4998C8.88615 29.4817 7.37846 27.4599 6.25005 25.6604C3.09302 20.6324 2.76095 14.7302 4.70773 11.5905C6.09267 9.3614 8.27709 8.05747 10.3293 8.05747C12.4177 8.05747 13.7318 9.25604 15.4614 9.25604C17.1391 9.25604 18.1605 8.0542 20.5763 8.0542C22.405 8.0542 24.3423 9.09634 25.721 10.8942C21.2011 13.4856 21.9328 20.2373 26.5 22.0433Z" fill="#F5F5F5" fill-opacity="0.85"/>
</svg>
