<svg width="30" height="30" viewBox="0 0 30 30" fill="none" xmlns="http://www.w3.org/2000/svg">
<path fill-rule="evenodd" clip-rule="evenodd" d="M23.3844 16.8134C23.2255 16.9072 21.63 17.8481 19.4552 19.1305L16.6183 16.069L19.5937 12.8581C20.4161 13.3414 21.1525 13.7742 21.7554 14.1284L21.7778 14.1416L21.8303 14.1724L21.8373 14.1766C22.6542 14.6566 23.2117 14.9842 23.3844 15.0858C24.4573 15.716 23.9084 16.5044 23.3844 16.8134ZM18.9249 12.4651C18.8658 12.4303 18.8063 12.3954 18.7465 12.3603L15.9722 15.3719L16.1018 15.5116L18.9249 12.4651ZM15.5852 16.069L15.4573 15.9309L15.4263 15.9645L15.5542 16.1025L15.5852 16.069ZM15.5542 16.1025L15.4263 15.9645L4.79867 4.51358C4.35972 4.61906 4 5.02833 4 5.85096V26.1184C4 26.8931 4.28298 27.438 4.80628 27.4923C4.86612 27.5005 4.92913 27.5022 4.99494 27.4974L15.5542 16.1025ZM6.94701 26.5056L16.0708 16.6599L18.7489 19.5462L6.94701 26.5056ZM16.0708 16.6599L16.1018 16.6264L18.7872 19.5244L18.7489 19.5462L16.0708 16.6599ZM18.7465 12.3603L15.9722 15.3719L6.52538 5.17748L18.7465 12.3603ZM15.4573 15.9309L4.86455 4.5C4.84248 4.50365 4.82032 4.50838 4.79867 4.51358L15.4263 15.9645L15.4573 15.9309Z" fill="#F5F5F5" fill-opacity="0.85"/>
</svg>
