<svg width="331" height="140" viewBox="0 0 331 140" fill="none" xmlns="http://www.w3.org/2000/svg">
<path opacity="0.1" d="M62.0192 0C62.0192 8.34274 60.4151 16.6043 57.2984 24.3119C54.1816 32.0196 49.6134 39.0232 43.8546 44.9223C41.865 46.9603 39.7462 48.8521 37.5155 50.5879H61.4451V139.999H36.7524V51.1713C32.7336 54.2 28.3639 56.7287 23.7335 58.6934C16.209 61.886 8.14444 63.5292 0 63.5292V38.1178C4.8867 38.1178 9.72549 37.1315 14.2402 35.2159C18.7549 33.3003 22.8575 30.493 26.3129 26.9535C29.7682 23.414 32.5089 19.2115 34.3789 14.5869C36.2489 9.96235 37.2118 5.00559 37.2118 0H62.0192ZM283.796 43.2934C293.132 43.2934 302.258 46.1294 310.021 51.4424C317.783 56.7555 323.834 64.3074 327.406 73.1428C330.979 81.9782 331.914 91.7001 330.093 101.08C328.271 110.459 323.775 119.076 317.174 125.838C310.572 132.6 302.162 137.205 293.005 139.07C283.848 140.937 274.357 139.98 265.731 136.32C257.106 132.66 249.734 126.462 244.547 118.51C239.36 110.559 236.591 101.21 236.591 91.6468H260.926C260.926 96.2801 262.267 100.81 264.78 104.662C267.293 108.514 270.865 111.517 275.043 113.29C279.222 115.063 283.821 115.527 288.257 114.623C292.694 113.719 296.768 111.488 299.967 108.212C303.165 104.936 305.344 100.762 306.226 96.2172C307.108 91.6727 306.656 86.9622 304.925 82.6816C303.194 78.401 300.262 74.7424 296.501 72.168C292.74 69.5943 288.319 68.2203 283.796 68.2203V43.2934ZM121.555 0.00934589C130.323 -0.161597 138.977 2.07244 146.619 6.48003C159.234 13.7982 166.542 24.8524 170.337 38.9162C162.698 46.5293 154.288 55.0503 146.945 62.9231L171.525 62.9712C171.413 73.0451 171.754 83.3378 171.396 93.3995C171.146 100.444 168.173 109.086 164.667 115.108C157.999 126.681 147.077 135.03 134.349 138.281C121.684 141.521 108.281 139.437 97.1248 132.492C85.4963 125.241 77.9855 114.255 74.7762 100.78L77.7095 97.864L140.554 33.6084C136.065 28.7435 129.974 25.6834 123.41 25.4375C116.909 25.1778 110.579 27.6108 105.848 32.1879C97.6468 40.1392 98.3622 48.3677 98.3735 58.7636C98.4222 64.6969 98.3907 70.6307 98.2783 76.5635L73.5543 76.5416L73.5152 58.2348C73.5131 54.1831 73.4215 48.9294 73.8045 44.9517C74.8932 34.3837 79.2342 24.4438 86.1998 16.5702C95.6763 5.89096 107.618 0.652154 121.555 0.00934589ZM146.474 63.54C143.529 66.3569 140.614 69.3681 137.788 72.3143C126.831 83.7329 115.52 94.8733 104.613 106.335C106.134 107.862 107.587 109.292 109.376 110.497C115.538 114.18 121.743 115.559 128.782 113.651C134.976 111.987 140.267 107.861 143.484 102.188C144.881 99.7254 145.838 97.0259 146.311 94.2184C146.952 90.3944 146.744 84.4801 146.723 80.4271C146.688 74.9085 146.718 69.39 146.813 63.8717C146.556 63.5426 146.698 63.6092 146.474 63.54ZM274.587 0.929914C283.743 -0.935799 293.235 0.021865 301.86 3.68161C310.485 7.34135 317.858 13.5393 323.044 21.4909C328.231 29.4425 330.999 38.7909 330.999 48.3542H306.666C306.666 43.721 305.324 39.1919 302.811 35.3395C300.298 31.487 296.726 28.4843 292.547 26.7112C288.369 24.9381 283.771 24.4742 279.334 25.3781C274.898 26.282 270.823 28.5131 267.624 31.7893C264.426 35.0656 262.248 39.2398 261.366 43.7841C260.483 48.3282 260.936 53.0384 262.667 57.3189C264.397 61.5996 267.329 65.2589 271.09 67.833C274.85 70.4071 279.273 71.7811 283.796 71.7811V96.708C274.46 96.708 265.333 93.8718 257.571 88.559C249.809 83.2455 243.758 75.694 240.185 66.8584C236.612 58.023 235.677 48.3006 237.499 38.9209C239.32 29.5413 243.816 20.9253 250.417 14.163C257.019 7.40069 265.43 2.79563 274.587 0.929914ZM226.256 82.942H182.038V57.648H226.256V82.942Z" fill="url(#paint0_linear_1110_2628)"/>
<defs>
<linearGradient id="paint0_linear_1110_2628" x1="0" y1="70" x2="331" y2="70" gradientUnits="userSpaceOnUse">
<stop stop-color="#CBFF00"/>
<stop offset="1" stop-color="#07F499"/>
</linearGradient>
</defs>
</svg>
